<?xml version="1.0" encoding="UTF-8"?>
<svg version="1.1" xmlns="http://www.w3.org/2000/svg" width="385" height="400">
<path d="M0 0 C127.05 0 254.1 0 385 0 C385 132 385 264 385 400 C257.95 400 130.9 400 0 400 C0 268 0 136 0 0 Z " fill="#FEFEFE" transform="translate(0,0)"/>
<path d="M0 0 C1.74216068 0.84716051 3.48436315 1.69423711 5.22753906 2.53930664 C18.66896881 9.11873985 30.88011447 17.01268476 41.9453125 27.1328125 C43.7970795 28.81559696 45.69282441 30.41132229 47.625 32 C64.30642797 46.36350746 79.72724294 69.63145822 85 91 C85 91.99 85 92.98 85 94 C85.66 94 86.32 94 87 94 C95.1492689 126.30750769 101.44813069 169.92715677 84.50390625 200.71875 C83.75947266 201.84796875 83.75947266 201.84796875 83 203 C80.22581545 208.19439302 77.64331178 213.32310475 76 219 C75.34 219 74.68 219 74 219 C73.63068359 220.29357422 73.63068359 220.29357422 73.25390625 221.61328125 C68.40769048 234.702593 56.57941438 246.56269688 46.9375 256.3125 C46.37200439 256.88734131 45.80650879 257.46218262 45.22387695 258.05444336 C15.0166145 288.03566212 -26.73745726 300.25386188 -68.18310547 300.18066406 C-79.98062884 300.0933976 -90.95109148 299.594503 -102.01171875 295.12109375 C-104.98609938 294.005215 -107.94588925 293.16516401 -111.00976562 292.34155273 C-124.92890134 288.56060365 -137.08114559 282.07044687 -149 274 C-150.17175781 273.2575 -150.17175781 273.2575 -151.3671875 272.5 C-181.9454387 252.44868774 -203.22277 218.70543472 -213 184 C-213.29648438 183.04867187 -213.59296875 182.09734375 -213.8984375 181.1171875 C-217.89281189 167.86851997 -218.19597389 154.52747074 -218.25 140.8125 C-218.25526703 140.12999176 -218.26053406 139.44748352 -218.26596069 138.74429321 C-218.40377945 115.60566918 -218.40377945 115.60566918 -214 109 C-213.31642117 106.33461702 -212.69902484 103.68851511 -212.125 101 C-209.03038459 87.21356168 -209.03038459 87.21356168 -206 81 C-205.01 80.505 -205.01 80.505 -204 80 C-203.18808554 78.21437653 -202.4502415 76.39479858 -201.75 74.5625 C-199.34962503 68.63174898 -196.49825955 63.34672263 -193 58 C-192.48824219 57.21238281 -191.97648437 56.42476563 -191.44921875 55.61328125 C-172.53134058 27.5750895 -143.11490017 3.31546478 -109.625 -4.3125 C-108.42875 -4.539375 -107.2325 -4.76625 -106 -5 C-106 -5.66 -106 -6.32 -106 -7 C-102.81315572 -7.6490968 -99.62541405 -8.29367948 -96.4375 -8.9375 C-95.54224609 -9.11990234 -94.64699219 -9.30230469 -93.72460938 -9.49023438 C-92.84482422 -9.66748047 -91.96503906 -9.84472656 -91.05859375 -10.02734375 C-90.25736084 -10.18968506 -89.45612793 -10.35202637 -88.63061523 -10.51928711 C-60.88957463 -15.58862437 -25.25330711 -13.38501113 0 0 Z " fill="#FDFEFD" transform="translate(250,56)"/>
<path d="M0 0 C1.95583008 -0.00193359 1.95583008 -0.00193359 3.95117188 -0.00390625 C4.95579468 -0.00076416 4.95579468 -0.00076416 5.98071289 0.00244141 C8.02562849 0.007808 10.07032539 0.00246953 12.11523438 -0.00390625 C14.06913086 -0.00197266 14.06913086 -0.00197266 16.0625 0 C17.24336182 0.00112793 18.42422363 0.00225586 19.64086914 0.00341797 C22.96484375 0.1328125 22.96484375 0.1328125 28.96484375 1.1328125 C28.96484375 9.7128125 28.96484375 18.2928125 28.96484375 27.1328125 C24.7728125 27.18888672 24.7728125 27.18888672 20.49609375 27.24609375 C17.76880372 27.2923961 15.04164621 27.34359799 12.31445312 27.39526367 C10.4291194 27.42837654 8.54368979 27.45645032 6.65820312 27.47924805 C3.93708703 27.51304626 1.21683887 27.5653728 -1.50390625 27.62109375 C-2.33756714 27.62748367 -3.17122803 27.6338736 -4.03015137 27.64045715 C-9.67074152 27.77998119 -13.83137446 28.95271353 -19.03515625 31.1328125 C-21.66308618 31.84313288 -24.31513678 32.41941268 -26.97265625 33.0078125 C-32.47003807 34.29952627 -37.16475962 35.91563476 -41.96484375 38.91796875 C-44.25691588 40.26293938 -46.54314786 41.1520036 -49.03515625 42.0703125 C-54.24224819 44.08232639 -58.55028328 46.83651011 -63.03515625 50.1328125 C-63.76476562 50.6690625 -64.494375 51.2053125 -65.24609375 51.7578125 C-90.39417453 70.81741057 -105.50241322 94.02541027 -114.03515625 124.1328125 C-114.69515625 124.1328125 -115.35515625 124.1328125 -116.03515625 124.1328125 C-116.80327752 130.80208583 -117.20477518 137.38197647 -117.23828125 144.09375 C-117.24683136 145.46148056 -117.24683136 145.46148056 -117.2555542 146.85684204 C-117.26492862 148.77108628 -117.27150774 150.68534612 -117.27539062 152.59960938 C-117.28510913 155.49378061 -117.31621035 158.38724424 -117.34765625 161.28125 C-117.39657302 170.09328303 -117.40564898 178.29453849 -114.68261719 186.77978516 C-113.9821453 189.32546693 -113.92383672 191.50508578 -114.03515625 194.1328125 C-113.37515625 194.1328125 -112.71515625 194.1328125 -112.03515625 194.1328125 C-111.69742188 195.18082031 -111.3596875 196.22882813 -111.01171875 197.30859375 C-110.56143804 198.68757843 -110.11090394 200.06648039 -109.66015625 201.4453125 C-109.4384375 202.13560547 -109.21671875 202.82589844 -108.98828125 203.53710938 C-107.93582234 206.74091812 -106.91759498 209.30915441 -105.03515625 212.1328125 C-105.03515625 213.4528125 -105.03515625 214.7728125 -105.03515625 216.1328125 C-104.37515625 216.1328125 -103.71515625 216.1328125 -103.03515625 216.1328125 C-102.64585938 216.93203125 -102.2565625 217.73125 -101.85546875 218.5546875 C-97.49317767 227.11844786 -92.43891371 233.91554839 -86.03515625 241.1328125 C-85.44992188 241.83921875 -84.8646875 242.545625 -84.26171875 243.2734375 C-76.24053603 252.89885677 -67.43932541 260.8123635 -56.03515625 266.1328125 C-56.03515625 266.7928125 -56.03515625 267.4528125 -56.03515625 268.1328125 C-55.00841797 268.53693359 -55.00841797 268.53693359 -53.9609375 268.94921875 C-50.69148934 270.2718393 -47.4587598 271.66811989 -44.22265625 273.0703125 C-29.92360447 279.20296763 -16.23977167 283.23485903 -0.54296875 283.37109375 C0.3612381 283.3791655 1.26544495 283.38723724 2.197052 283.39555359 C4.10823691 283.40933276 6.01944579 283.42008225 7.93066406 283.42797852 C9.85228886 283.43942828 11.77388365 283.45976712 13.6953125 283.48950195 C31.09509829 283.75799865 46.06797187 281.64237774 61.96484375 274.1328125 C62.6196875 273.83890625 63.27453125 273.545 63.94921875 273.2421875 C75.64395998 267.74465957 86.25173232 260.60828553 95.96484375 252.1328125 C96.6815625 251.54886719 97.39828125 250.96492187 98.13671875 250.36328125 C118.40796492 233.58843219 129.70101997 207.98134975 135.96484375 183.1328125 C136.31160156 181.87855469 136.65835937 180.62429687 137.015625 179.33203125 C138.02459852 175.27743824 138.30816775 171.30040159 138.37890625 167.1328125 C138.40795547 166.05108765 138.40795547 166.05108765 138.43759155 164.94750977 C138.49669638 162.67605897 138.5434915 160.40455555 138.58984375 158.1328125 C138.62808741 156.57940671 138.66714271 155.02602067 138.70703125 153.47265625 C138.80384671 149.69281948 138.883958 145.91315685 138.96484375 142.1328125 C147.87484375 142.1328125 156.78484375 142.1328125 165.96484375 142.1328125 C166.81572416 197.15641209 166.81572416 197.15641209 154.96484375 215.1328125 C152.1906592 220.32720552 149.60815553 225.45591725 147.96484375 231.1328125 C147.30484375 231.1328125 146.64484375 231.1328125 145.96484375 231.1328125 C145.59552734 232.42638672 145.59552734 232.42638672 145.21875 233.74609375 C140.37253423 246.8354055 128.54425813 258.69550938 118.90234375 268.4453125 C118.33684814 269.02015381 117.77135254 269.59499512 117.1887207 270.18725586 C86.98145825 300.16847462 45.22738649 312.38667438 3.78173828 312.31347656 C-8.01578509 312.2262101 -18.98624773 311.7273155 -30.046875 307.25390625 C-33.02125563 306.1380275 -35.9810455 305.29797651 -39.04492188 304.47436523 C-52.96405759 300.69341615 -65.11630184 294.20325937 -77.03515625 286.1328125 C-78.20691406 285.3903125 -78.20691406 285.3903125 -79.40234375 284.6328125 C-109.98059495 264.58150024 -131.25792625 230.83824722 -141.03515625 196.1328125 C-141.33164063 195.18148437 -141.628125 194.23015625 -141.93359375 193.25 C-145.92796814 180.00133247 -146.23113014 166.66028324 -146.28515625 152.9453125 C-146.29042328 152.26280426 -146.29569031 151.58029602 -146.30111694 150.87710571 C-146.4389357 127.73848168 -146.4389357 127.73848168 -142.03515625 121.1328125 C-141.35157742 118.46742952 -140.73418109 115.82132761 -140.16015625 113.1328125 C-137.06554084 99.34637418 -137.06554084 99.34637418 -134.03515625 93.1328125 C-133.04515625 92.6378125 -133.04515625 92.6378125 -132.03515625 92.1328125 C-131.22324179 90.34718903 -130.48539775 88.52761108 -129.78515625 86.6953125 C-127.38478128 80.76456148 -124.5334158 75.47953513 -121.03515625 70.1328125 C-120.52339844 69.34519531 -120.01164062 68.55757813 -119.484375 67.74609375 C-100.56649683 39.707902 -71.15005642 15.44827728 -37.66015625 7.8203125 C-36.46390625 7.5934375 -35.26765625 7.3665625 -34.03515625 7.1328125 C-34.03515625 6.4728125 -34.03515625 5.8128125 -34.03515625 5.1328125 C-30.84831197 4.4837157 -27.6605703 3.83913302 -24.47265625 3.1953125 C-23.57740234 3.01291016 -22.68214844 2.83050781 -21.75976562 2.64257812 C-20.87998047 2.46533203 -20.00019531 2.28808594 -19.09375 2.10546875 C-18.29251709 1.94312744 -17.49128418 1.78078613 -16.66577148 1.61352539 C-11.07015019 0.59099376 -5.69195342 0.00543162 0 0 Z " fill="#93D87C" transform="translate(178.03515625,43.8671875)"/>
<path d="M0 0 C3.79159964 -0.05886171 7.58307919 -0.09388224 11.375 -0.125 C12.96634766 -0.15013672 12.96634766 -0.15013672 14.58984375 -0.17578125 C21.31269261 -0.21702572 27.47111548 0.37829164 34 2 C34 2.66 34 3.32 34 4 C34.680625 4.0825 35.36125 4.165 36.0625 4.25 C42.42227743 5.87377296 47.16528184 9.75488162 52 14 C50.33012011 18.02333635 47.56702111 21.05308147 44.6875 24.25 C44.21376953 24.80429688 43.74003906 25.35859375 43.25195312 25.9296875 C41.02042217 28.40848796 39.62626389 29.89202347 36.28125 30.46875 C33.12364905 29.81992789 31.51954822 28.01563857 29 26 C21.13739415 21.48091003 12.90592469 20.85979511 4 22 C0.53619346 23.17427172 0.12361455 23.78240219 -2 27 C-2.45118509 30.39685324 -2.35668935 33.59824049 -2 37 C-1.07767578 37.29003906 -1.07767578 37.29003906 -0.13671875 37.5859375 C0.67152344 37.84632813 1.47976562 38.10671875 2.3125 38.375 C3.11300781 38.63023437 3.91351563 38.88546875 4.73828125 39.1484375 C7 40 7 40 10 42 C12.08427061 42.57045524 12.08427061 42.57045524 14.38671875 42.9296875 C15.6715918 43.16365234 15.6715918 43.16365234 16.98242188 43.40234375 C18.76553515 43.71390578 20.54938287 44.02129746 22.33398438 44.32421875 C27.44758657 45.26368562 31.68276 46.53925768 36.22192383 49.10205078 C38.12462936 50.06293928 39.92121502 50.55558786 42 51 C42 51.66 42 52.32 42 53 C42.721875 53.20625 43.44375 53.4125 44.1875 53.625 C49.18735641 56.06937425 51.81018458 59.95190902 53.8125 65 C56.7569736 75.05182367 55.90590028 85.75933409 51 95 C46.50604096 102.19784527 39.9014788 106.15805122 32 109 C29.1328125 109.15625 29.1328125 109.15625 27 109 C27 109.66 27 110.32 27 111 C12.39444164 113.33464807 -3.76301174 113.25899356 -17 106 C-17.71027344 105.61714844 -18.42054688 105.23429687 -19.15234375 104.83984375 C-23.80335478 102.14624146 -26.72507273 99.23814118 -30 95 C-30.66 94.67 -31.32 94.34 -32 94 C-31.72469788 88.46219204 -28.2530841 85.48369576 -24.625 81.6875 C-24.03460938 81.04232422 -23.44421875 80.39714844 -22.8359375 79.73242188 C-19.53374443 76.21826371 -19.53374443 76.21826371 -18 75 C-17.01 75 -16.02 75 -15 75 C-13.52734375 76.609375 -13.52734375 76.609375 -11.9375 78.75 C-7.9928693 83.50206044 -3.79524323 85.20671669 2 87 C2.99 87.33 3.98 87.66 5 88 C13.57890803 88.62077508 20.61154472 88.82511365 28 84 C28.08090971 82.37581255 28.13914995 80.75048255 28.1875 79.125 C28.22230469 78.22007812 28.25710937 77.31515625 28.29296875 76.3828125 C28.19628906 75.59648437 28.09960938 74.81015625 28 74 C27.01 73.34 26.02 72.68 25 72 C25 71.34 25 70.68 25 70 C23.31197266 69.63648438 23.31197266 69.63648438 21.58984375 69.265625 C17.53063976 68.3845816 13.47838942 67.47505851 9.42871094 66.55126953 C7.90461845 66.20533056 6.37937408 65.86438802 4.85253906 65.53076172 C-6.2298159 63.08874939 -16.69221837 59.22418772 -23.8515625 49.93359375 C-28.92316369 41.39467338 -29.27151354 31.27902698 -26.9375 21.8125 C-25.14411266 16.46633583 -22.01181801 12.86821826 -18 9 C-17.236875 8.236875 -16.47375 7.47375 -15.6875 6.6875 C-11.01271382 3.75216914 -5.53374103 2 0 2 C0 1.34 0 0.68 0 0 Z " fill="#050505" transform="translate(172,146)"/>
<path d="M0 0 C7.48060492 0.68005499 14.28497548 1.49338006 21.5 3.25 C22.8778064 3.58378662 22.8778064 3.58378662 24.28344727 3.92431641 C30.94368122 5.60134098 36.92324087 7.77913518 43 11 C44.74216068 11.84716051 46.48436315 12.69423711 48.22753906 13.53930664 C61.66896881 20.11873985 73.88011447 28.01268476 84.9453125 38.1328125 C86.7970795 39.81559696 88.69282441 41.41132229 90.625 43 C107.30642797 57.36350746 122.72724294 80.63145822 128 102 C128 102.99 128 103.98 128 105 C128.66 105 129.32 105 130 105 C136 129.05825243 136 129.05825243 136 141 C127.42 141 118.84 141 110 141 C110 151.89 110 162.78 110 174 C109.67 174 109.34 174 109 174 C108.97812622 172.39898437 108.97812622 172.39898437 108.95581055 170.765625 C108.89690232 166.72462951 108.81969587 162.6841389 108.73754883 158.64355469 C108.70472688 156.9099154 108.67656921 155.17618016 108.65356445 153.44238281 C108.49714301 141.95372737 107.51887501 131.22642206 105 120 C104.78778809 118.9996875 104.57557617 117.999375 104.35693359 116.96875 C102.60332009 109.01693846 98.75553409 101.99868591 94.97265625 94.85693359 C94.13026909 93.24870147 93.32703967 91.62007336 92.53125 89.98828125 C88.50726977 81.97541364 82.89260861 75.67004423 77 69 C75.93505645 67.68948188 74.87199111 66.37743007 73.8125 65.0625 C71.12407583 61.89315538 67.95857824 59.59902819 64.5390625 57.26171875 C64.03117187 56.84535156 63.52328125 56.42898437 63 56 C63 55.34 63 54.68 63 54 C62.41516846 53.71624512 61.83033691 53.43249023 61.2277832 53.14013672 C59.19329646 52.09892542 57.28508798 50.9797933 55.35546875 49.7578125 C54.67806641 49.33113281 54.00066406 48.90445313 53.30273438 48.46484375 C52.60470703 48.02269531 51.90667969 47.58054688 51.1875 47.125 C42.13466451 40.77353399 42.13466451 40.77353399 32 37 C32 36.34 32 35.68 32 35 C31.18917969 34.81824219 30.37835938 34.63648438 29.54296875 34.44921875 C23.27405955 33.02612528 17.07674434 31.52090744 10.92578125 29.6484375 C3.55259195 28.01432612 -3.98360405 27.85388922 -11.5078125 27.90234375 C-12.78505692 27.90446617 -12.78505692 27.90446617 -14.08810425 27.90663147 C-16.76710759 27.91216081 -19.44602257 27.92469926 -22.125 27.9375 C-23.95833211 27.94252416 -25.79166556 27.94708545 -27.625 27.95117188 C-32.08336659 27.96210694 -36.54166839 27.97932128 -41 28 C-40.67 27.34 -40.34 26.68 -40 26 C-26.8 26 -13.6 26 0 26 C0 17.42 0 8.84 0 0 Z " fill="#D9D9D9" transform="translate(207,45)"/>
<path d="M0 0 C3.3144265 0.22667982 4.28322306 0.73155839 7.1875 2.6875 C9.125 5.625 9.125 5.625 9.125 9.25 C8.13857926 12.57917 7.77794202 13.59308759 5.125 15.625 C2.07508689 16.23829775 -0.81068076 16.13286669 -3.875 15.625 C-6.62325705 13.45970656 -6.81039968 12.13103588 -7.25 8.6875 C-6.573975 3.16662918 -5.72989293 0.92417628 0 0 Z " fill="#101010" transform="translate(245.875,233.375)"/>
<path d="M0 0 C0.66 0.33 1.32 0.66 2 1 C-4.6 7.6 -11.2 14.2 -18 21 C-18.66 20.67 -19.32 20.34 -20 20 C-13.76332984 12.76238278 -7.16527521 6.29472776 0 0 Z " fill="#ABE199" transform="translate(89,78)"/>
<path d="M0 0 C0 0.66 0 1.32 0 2 C-1.57421875 3.55078125 -1.57421875 3.55078125 -3.6875 5.3125 C-6.95300964 8.08499308 -10.01915985 10.92600859 -13 14 C-13.66 13.67 -14.32 13.34 -15 13 C-13.07212573 10.82404268 -11.13370426 8.65945616 -9.1875 6.5 C-8.64029297 5.87996094 -8.09308594 5.25992188 -7.52929688 4.62109375 C-6.99755859 4.03457031 -6.46582031 3.44804687 -5.91796875 2.84375 C-5.18743286 2.02680664 -5.18743286 2.02680664 -4.44213867 1.19335938 C-3 0 -3 0 0 0 Z " fill="#303030" transform="translate(157,221)"/>
<path d="M0 0 C0.66 0.33 1.32 0.66 2 1 C-1.96 4.96 -5.92 8.92 -10 13 C-10.66 12.67 -11.32 12.34 -12 12 C-8.27653164 7.57905197 -4.70478962 3.42166518 0 0 Z " fill="#292929" transform="translate(159,151)"/>
</svg>
